<svg xmlns="http://www.w3.org/2000/svg" width="111.968" height="28.614" viewBox="0 0 111.968 28.614">
  <g id="paypal" transform="translate(0 -187.6)">
    <path id="Path_636" data-name="Path 636" d="M356.62,221.2h-6.043a1.181,1.181,0,0,0-.889.711l-2.488,15.64a.471.471,0,0,0,.533.533h3.2a.471.471,0,0,0,.533-.533l.711-4.443a.813.813,0,0,1,.889-.711h1.955q6.132,0,6.931-5.865a4.659,4.659,0,0,0-.711-3.91,7.168,7.168,0,0,0-4.621-1.422m.711,5.865c-.355,2.133-1.955,2.133-3.555,2.133H352.71l.711-4.088c0-.178.178-.355.533-.355h.355c1.066,0,2.133,0,2.666.711.355.178.355.711.355,1.6" transform="translate(-270.067 -26.135)" fill="#139ad6"/>
    <g id="Group_7360" data-name="Group 7360" transform="translate(33.59 195.065)">
      <path id="Path_637" data-name="Path 637" d="M160.62,221.2h-6.043a1.181,1.181,0,0,0-.889.711l-2.488,15.64a.471.471,0,0,0,.533.533h2.844a1.181,1.181,0,0,0,.889-.711l.711-4.265a.813.813,0,0,1,.889-.711h1.955q6.132,0,6.931-5.865a4.659,4.659,0,0,0-.711-3.91,6.831,6.831,0,0,0-4.621-1.422m.711,5.865c-.355,2.133-1.955,2.133-3.555,2.133h-.889l.711-4.088c0-.178.178-.355.533-.355h.355c1.066,0,2.133,0,2.666.711a1.9,1.9,0,0,1,.178,1.6" transform="translate(-151.2 -221.2)" fill="#263b80"/>
      <path id="Path_638" data-name="Path 638" d="M227.7,245.555h-2.844c-.178,0-.533.178-.533.355l-.178.889-.178-.355a4.181,4.181,0,0,0-3.377-1.244,6.829,6.829,0,0,0-6.576,5.865,5.3,5.3,0,0,0,1.066,4.443,4.478,4.478,0,0,0,3.732,1.422,5.681,5.681,0,0,0,4.088-1.6l-.178.889a.471.471,0,0,0,.533.533h2.666a1.181,1.181,0,0,0,.889-.711l1.6-9.953c-.178-.178-.533-.533-.711-.533m-4.088,5.687a3.438,3.438,0,0,1-3.377,2.844,2.842,2.842,0,0,1-1.955-.711,3.79,3.79,0,0,1-.533-2.133,3.17,3.17,0,0,1,5.154-2.133,3.1,3.1,0,0,1,.711,2.133" transform="translate(-199.97 -239.868)" fill="#263b80"/>
    </g>
    <path id="Path_639" data-name="Path 639" d="M422.9,245.555h-2.844c-.178,0-.533.178-.533.355l-.178.889-.178-.355a4.181,4.181,0,0,0-3.377-1.244,6.829,6.829,0,0,0-6.576,5.865,5.3,5.3,0,0,0,1.066,4.443,4.478,4.478,0,0,0,3.732,1.422,5.681,5.681,0,0,0,4.088-1.6l-.178.889a.471.471,0,0,0,.533.533h2.666a1.181,1.181,0,0,0,.889-.711l1.6-9.953c-.178-.178-.355-.533-.711-.533m-4.088,5.687a3.437,3.437,0,0,1-3.377,2.844,2.842,2.842,0,0,1-1.955-.711,3.79,3.79,0,0,1-.533-2.133,3.17,3.17,0,0,1,5.154-2.133,2.04,2.04,0,0,1,.711,2.133" transform="translate(-318.214 -44.804)" fill="#139ad6"/>
    <path id="Path_640" data-name="Path 640" d="M297.685,246.8h-3.021a.923.923,0,0,0-.711.355l-3.91,6.043-1.777-5.687a.821.821,0,0,0-.889-.533h-2.844c-.355,0-.533.355-.533.711l3.2,9.42-3.021,4.265c-.178.355,0,.889.355.889h2.844a.923.923,0,0,0,.711-.355l9.775-14.04c.533-.533.178-1.066-.178-1.066" transform="translate(-220.907 -46.048)" fill="#263b80"/>
    <path id="Path_641" data-name="Path 641" d="M477.688,222.111l-2.488,16a.471.471,0,0,0,.533.533h2.488a1.181,1.181,0,0,0,.889-.711l2.488-15.64a.471.471,0,0,0-.533-.533h-2.844c-.178-.178-.355,0-.533.355" transform="translate(-369.63 -26.514)" fill="#139ad6"/>
    <path id="Path_642" data-name="Path 642" d="M20.439,189.733c-1.244-1.422-3.555-2.133-6.754-2.133H4.8a1.525,1.525,0,0,0-1.244,1.066L0,211.949a.813.813,0,0,0,.711.889H6.22l1.422-8.709v.355a1.525,1.525,0,0,1,1.244-1.066h2.666c5.154,0,9.064-2.133,10.308-8v-.533h0c.178-2.31-.178-3.732-1.422-5.154" fill="#263b80"/>
    <path id="Path_643" data-name="Path 643" d="M41.6,220.4h0v.533c-1.244,6.043-5.154,8-10.308,8H28.621A1.525,1.525,0,0,0,27.377,230L25.6,240.839a.651.651,0,0,0,.711.711h4.621A1,1,0,0,0,32,240.661v-.178l.889-5.51v-.355a1,1,0,0,1,1.066-.889h.711c4.443,0,8-1.777,8.886-7.109.355-2.133.178-4.088-.889-5.332A1.82,1.82,0,0,0,41.6,220.4" transform="translate(-19.913 -25.513)" fill="#139ad6"/>
    <path id="Path_644" data-name="Path 644" d="M47.2,216.133c-.178,0-.355-.178-.533-.178a.653.653,0,0,1-.533-.178,9.389,9.389,0,0,0-2.31-.178H36.888a.653.653,0,0,0-.533.178.977.977,0,0,0-.533.889L34.4,225.908v.355a1.525,1.525,0,0,1,1.244-1.066H38.31c5.154,0,9.064-2.133,10.308-8a.653.653,0,0,1,.178-.533c-.355-.178-.533-.355-.889-.355-.533-.178-.533-.178-.711-.178" transform="translate(-26.758 -21.78)" fill="#232c65"/>
  </g>
</svg>
